#Comment line ignore any data following # character 
#Hierarchical Translation and Rotation (.htr) file 
[Header]	
#Header keywords are followed by a single value 
FileType HTR		#Single word string
DataType HTRS		#Translation followed by rotation and scale data
FileVersion 1		#integer
NumSegments 25		#integer
NumFrames 4		#integer
DataFrameRate 30		#integer, data frame rate in this file
EulerRotationOrder ZYX
CalibrationUnits mm
RotationUnits Degrees
GlobalAxisofGravity Y
BoneLengthAxis Y
ScaleFactor 1.00
[SegmentNames&Hierarchy]
#CHILD	PARENT
BN_Tick_Root GLOBAL
BN_Torso BN_Tick_Root
BN_L_Leg_Front01 BN_Torso
BN_L_Leg_Rear01 BN_Torso
BN_MetalTop BN_Torso
BN_Neck BN_Torso
BN_R_Leg_Front01 BN_Torso
BN_R_Leg_Rear01 BN_Torso
BN_Sack BN_Torso
BN_L_Leg_Front02 BN_L_Leg_Front01
BN_L_Leg_Front03 BN_L_Leg_Front02
BN_L_Leg_Rear02 BN_L_Leg_Rear01
BN_L_Leg_Rear03 BN_L_Leg_Rear02
BN_Head BN_Neck
BN_Needle BN_Head
BN_R_Leg_Front02 BN_R_Leg_Front01
BN_R_Leg_Front03 BN_R_Leg_Front02
BN_R_Leg_Rear02 BN_R_Leg_Rear01
BN_R_Leg_Rear03 BN_R_Leg_Rear02
BN_SackDef01 BN_Sack
BN_SackDef02 BN_Sack
BN_SackDef03 BN_Sack
BN_SackDef04 BN_Sack
BN_SackDef05 BN_Sack
BN_SackDef06 BN_Sack
[BasePosition]
#SegmentName Tx, Ty, Tz, Rx, Ry, Rz, BoneLength
BN_Tick_Root 0.000000 0.000000 0.000000 -90.000000 0.000000 0.000000 10.000000 
BN_Torso 0.000000 0.000000 0.000000 0.000000 0.000000 0.000000 10.000000 
BN_L_Leg_Front01 0.000000 0.000000 0.000000 0.000000 0.000000 0.000000 10.000000 
BN_L_Leg_Rear01 0.000000 0.000000 0.000000 0.000000 0.000000 0.000000 10.000000 
BN_MetalTop 0.000000 0.000000 0.000000 0.000000 0.000000 0.000000 10.000000 
BN_Neck 0.000000 0.000000 0.000000 0.000000 0.000000 0.000000 10.000000 
BN_R_Leg_Front01 0.000000 0.000000 0.000000 0.000000 0.000000 0.000000 10.000000 
BN_R_Leg_Rear01 0.000000 0.000000 0.000000 0.000000 0.000000 0.000000 10.000000 
BN_Sack 0.000000 0.000000 0.000000 0.000000 0.000000 0.000000 10.000000 
BN_L_Leg_Front02 0.000000 0.000000 0.000000 0.000000 0.000000 0.000000 10.000000 
BN_L_Leg_Front03 0.000000 0.000000 0.000000 0.000000 0.000000 0.000000 10.000000 
BN_L_Leg_Rear02 0.000000 0.000000 0.000000 0.000000 0.000000 0.000000 10.000000 
BN_L_Leg_Rear03 0.000000 0.000000 0.000000 0.000000 0.000000 0.000000 10.000000 
BN_Head 0.000000 0.000000 0.000000 0.000000 0.000000 0.000000 10.000000 
BN_Needle 0.000000 0.000000 0.000000 0.000000 0.000000 0.000000 10.000000 
BN_R_Leg_Front02 0.000000 0.000000 0.000000 0.000000 0.000000 0.000000 10.000000 
BN_R_Leg_Front03 0.000000 0.000000 0.000000 0.000000 0.000000 0.000000 10.000000 
BN_R_Leg_Rear02 0.000000 0.000000 0.000000 0.000000 0.000000 0.000000 10.000000 
BN_R_Leg_Rear03 0.000000 0.000000 0.000000 0.000000 0.000000 0.000000 10.000000 
BN_SackDef01 0.000000 0.000000 0.000000 0.000000 0.000000 0.000000 10.000000 
BN_SackDef02 0.000000 0.000000 0.000000 0.000000 0.000000 0.000000 10.000000 
BN_SackDef03 0.000000 0.000000 0.000000 0.000000 0.000000 0.000000 10.000000 
BN_SackDef04 0.000000 0.000000 0.000000 0.000000 0.000000 0.000000 10.000000 
BN_SackDef05 0.000000 0.000000 0.000000 0.000000 0.000000 0.000000 10.000000 
BN_SackDef06 0.000000 0.000000 0.000000 0.000000 0.000000 0.000000 10.000000 
#Beginning of Data. Separated by tabs
#Fr	Tx	Ty	Tz	Rx	Ry	Rz	SF
[BN_Tick_Root]
16 -336.445862 17.898922 -0.000006 0.000000 0.000000 -14.004770 336.921631
17 -400.505188 21.306997 -0.000008 0.000000 0.000000 -16.671329 401.071564
18 -455.951416 24.256828 -0.000009 0.000000 0.000000 -18.979307 456.596191
19 -499.554657 26.576641 -0.000010 0.000000 0.000000 -20.794422 500.261108
[BN_Torso]
16 1.956407 115.847977 240.555679 -8.278986 9.661763 -3.655434 267.004883
17 3.890060 119.800438 212.056488 -7.652352 6.213103 -1.829035 243.588242
18 -0.122306 120.697044 179.386734 -6.930422 2.283232 -0.126700 216.211456
19 -14.451619 117.879616 146.717041 -6.214785 -1.648525 1.081868 188.760010
[BN_L_Leg_Front01]
16 -68.477791 10.734189 -26.804373 -67.134758 37.965477 165.141266 74.316254
17 -68.477791 10.734189 -26.804373 -65.546181 34.974701 163.682114 74.316254
18 -68.477791 10.734189 -26.804373 -63.502598 30.787788 161.318695 74.316254
19 -68.477791 10.734189 -26.804373 -61.012257 26.548998 157.847076 74.316254
[BN_L_Leg_Rear01]
16 -72.133743 -73.994843 -18.268616 66.166237 43.903114 -141.279160 104.939293
17 -72.133743 -73.994843 -18.268616 65.062370 41.669586 -136.275192 104.939293
18 -72.133743 -73.994843 -18.268616 63.113850 38.650307 -131.326462 104.939293
19 -72.133743 -73.994843 -18.268616 60.684742 35.928551 -125.422028 104.939293
[BN_MetalTop]
16 0.000008 13.737477 26.403606 89.998581 -12.929120 -90.001572 29.763546
17 0.000008 13.737477 26.403606 89.998573 -12.929123 -90.001572 29.763546
18 0.000008 13.737477 26.403606 89.998573 -12.929121 -90.001572 29.763546
19 0.000008 13.737477 26.403606 89.998573 -12.929120 -90.001572 29.763546
[BN_Neck]
16 0.000014 95.233284 10.002091 -127.605339 -75.709755 125.784256 95.757088
17 0.000014 95.233284 10.002091 -124.043381 -77.671494 122.544044 95.757088
18 0.000014 95.233284 10.002091 -119.224670 -79.574120 118.045876 95.757088
19 0.000014 95.233284 10.002091 -112.563850 -81.406662 111.782837 95.757088
[BN_R_Leg_Front01]
16 68.477768 10.734107 -26.804314 36.021580 40.534721 90.842033 74.316193
17 68.477768 10.734107 -26.804314 43.303104 37.244576 87.156364 74.316193
18 68.477768 10.734107 -26.804314 50.877617 33.289474 83.223969 74.316193
19 68.477768 10.734107 -26.804314 57.526615 29.525166 78.456848 74.316193
[BN_R_Leg_Rear01]
16 72.133751 -73.994873 -18.268644 -31.469763 61.499870 -24.042568 104.939331
17 72.133751 -73.994873 -18.268644 -44.127663 55.448338 -19.465870 104.939331
18 72.133751 -73.994873 -18.268644 -52.666672 49.023731 -14.959469 104.939331
19 72.133751 -73.994873 -18.268644 -57.708618 43.138821 -10.082617 104.939331
[BN_Sack]
16 -0.000000 -78.024918 33.657791 90.857979 -9.937530 -91.112251 84.974907
17 -0.000000 -78.024918 33.657791 90.127419 -12.337405 -93.461960 84.974907
18 -0.000000 -78.024918 33.657791 88.294411 -8.201972 -95.645073 84.974907
19 -0.000000 -78.024918 33.657791 85.517929 -0.590070 -97.443672 84.974907
[BN_L_Leg_Front02]
16 142.805023 -0.000015 -0.000104 0.045568 -0.372888 -24.002098 142.805023
17 142.805023 -0.000015 -0.000104 0.187112 -0.121965 -51.580357 142.805023
18 142.805023 -0.000015 -0.000104 0.209202 0.111698 -74.593246 142.805023
19 142.805023 -0.000015 -0.000104 0.186652 0.291633 -92.250214 142.805023
[BN_L_Leg_Front03]
16 124.143021 -0.000045 0.000007 0.352805 0.002187 -0.171351 124.143021
17 124.143021 -0.000045 0.000007 0.352839 -0.308611 43.315948 124.143021
18 124.143021 -0.000045 0.000007 0.354497 -0.438645 77.130478 124.143021
19 124.143021 -0.000045 0.000007 0.354193 -0.441003 99.791084 124.143021
[BN_L_Leg_Rear02]
16 139.939041 0.000075 -0.000022 0.222238 -0.002383 20.019718 139.939041
17 139.939041 0.000075 -0.000022 0.198842 -0.125694 53.342438 139.939041
18 139.939041 0.000075 -0.000022 0.155519 -0.176380 71.270203 139.939041
19 139.939041 0.000075 -0.000022 0.119167 -0.223019 85.719261 139.939041
[BN_L_Leg_Rear03]
16 142.839615 0.000179 -0.000060 0.001660 0.001660 0.011448 142.839615
17 142.839615 0.000179 -0.000060 0.000696 0.002242 -55.507732 142.839615
18 142.839615 0.000179 -0.000060 0.000147 0.002343 -82.813660 142.839615
19 142.839615 0.000179 -0.000060 0.000255 -0.002333 -102.480881 142.839615
[BN_Head]
16 57.062447 -0.000030 0.000000 -2.636616 -8.272693 -12.875518 57.062447
17 57.062447 -0.000030 0.000000 -2.075245 -6.575341 -14.143209 57.062447
18 57.062447 -0.000030 0.000000 -1.553362 -4.866183 -15.390382 57.062447
19 57.062447 -0.000030 0.000000 -0.989767 -3.168257 -16.657314 57.062447
[BN_Needle]
16 33.915283 69.677727 -0.000044 0.000003 0.000030 87.896805 77.493431
17 33.915283 69.677727 -0.000043 0.000003 0.000030 87.896805 77.493431
18 33.915283 69.677719 -0.000043 0.000003 0.000030 87.896805 77.493431
19 33.915283 69.677719 -0.000042 0.000003 0.000030 87.896805 77.493431
[BN_R_Leg_Front02]
16 142.804947 -0.000060 0.000060 -0.199940 0.182095 81.852242 142.804947
17 142.804947 -0.000060 0.000060 -0.191514 0.261179 89.335197 142.804947
18 142.804947 -0.000060 0.000060 -0.182154 0.302121 92.997902 142.804947
19 142.804947 -0.000060 0.000060 -0.184341 0.293882 92.218124 142.804947
[BN_R_Leg_Front03]
16 124.143005 -0.000060 -0.000156 -0.351611 -0.446299 -86.853401 124.143005
17 124.143005 -0.000060 -0.000156 -0.350287 -0.445397 -96.290489 124.143005
18 124.143005 -0.000060 -0.000156 -0.352019 -0.442695 -100.678345 124.143005
19 124.143005 -0.000060 -0.000156 -0.351787 -0.443036 -99.756584 124.143005
[BN_R_Leg_Rear02]
16 139.939011 -0.000149 0.000015 -0.026093 -0.242020 -111.089561 139.939011
17 139.939011 -0.000149 0.000015 -0.023580 -0.242278 -112.278931 139.939011
18 139.939011 -0.000149 0.000015 -0.034396 -0.256547 -109.310577 139.939011
19 139.939011 -0.000149 0.000015 -0.058001 -0.229535 -101.359825 139.939011
[BN_R_Leg_Rear03]
16 142.839417 0.000075 0.000119 0.002205 -0.000804 130.080353 142.839417
17 142.839417 0.000075 0.000119 0.002198 -0.000825 131.136398 142.839417
18 142.839417 0.000075 0.000119 0.002216 -0.000773 128.460236 142.839417
19 142.839417 0.000075 0.000119 0.002264 -0.000620 120.642326 142.839417
[BN_SackDef01]
16 249.782272 -3.760844 42.949425 -128.408218 -44.374973 -11.740845 253.475800
17 249.782272 -3.760844 42.949425 -128.408218 -44.374973 -11.740845 253.475800
18 249.782272 -3.760844 42.949425 -128.408218 -44.374973 -11.740845 253.475800
19 249.782272 -3.760844 42.949425 -128.408218 -44.374973 -11.740845 253.475800
[BN_SackDef02]
16 138.789795 -62.131748 45.674385 32.077126 -27.375721 -88.781525 158.773758
17 138.789795 -62.131748 45.674385 32.077126 -27.375721 -88.781525 158.773758
18 138.789795 -62.131748 45.674385 32.077126 -27.375721 -88.781525 158.773758
19 138.789795 -62.131748 45.674385 32.077126 -27.375721 -88.781525 158.773758
[BN_SackDef03]
16 249.782272 -3.760785 -42.949661 18.144459 44.375008 -11.740894 253.475845
17 249.782272 -3.760785 -42.949661 18.144459 44.375008 -11.740894 253.475845
18 249.782272 -3.760785 -42.949661 18.144459 44.375008 -11.740894 253.475845
19 249.782272 -3.760785 -42.949661 18.144459 44.375008 -11.740894 253.475845
[BN_SackDef04]
16 138.789780 -62.131645 -45.674473 146.059982 27.375723 -88.781555 158.773743
17 138.789780 -62.131645 -45.674473 146.059982 27.375723 -88.781555 158.773743
18 138.789780 -62.131645 -45.674473 146.059982 27.375723 -88.781555 158.773743
19 138.789780 -62.131645 -45.674473 146.059982 27.375723 -88.781555 158.773743
[BN_SackDef05]
16 118.790161 46.167137 -63.831196 0.155741 51.314110 90.605110 142.537460
17 118.790161 46.167137 -63.831196 0.155741 51.314110 90.605110 142.537460
18 118.790161 46.167137 -63.831196 0.155741 51.314110 90.605110 142.537460
19 118.790161 46.167137 -63.831196 0.155741 51.314110 90.605110 142.537460
[BN_SackDef06]
16 118.790207 46.167194 63.831219 152.058487 -51.314072 90.605019 142.537537
17 118.790207 46.167194 63.831219 152.058487 -51.314072 90.605019 142.537537
18 118.790207 46.167194 63.831219 152.058487 -51.314072 90.605019 142.537537
19 118.790207 46.167194 63.831219 152.058487 -51.314072 90.605019 142.537537
